<?xml version="1.0" standalone="no"?><!DOCTYPE svg PUBLIC "-//W3C//DTD SVG 1.1//EN" "http://www.w3.org/Graphics/SVG/1.1/DTD/svg11.dtd"><svg t="1620720600381" class="icon" viewBox="0 0 1024 1024" version="1.1" xmlns="http://www.w3.org/2000/svg" p-id="7870" xmlns:xlink="http://www.w3.org/1999/xlink" width="128" height="128"><defs><style type="text/css"></style></defs><path d="M355.135211 0.286987H97.145169A89.976692 89.976692 0 0 0 0.3456 97.086557v257.990041a89.550262 89.550262 0 0 0 96.799569 96.373139h257.990042a89.550262 89.550262 0 0 0 96.799569-96.373139V97.086557A90.403122 90.403122 0 0 0 355.135211 0.286987zM355.135211 572.129376h-255.857893A96.373139 96.373139 0 0 0 0.3456 676.604682v250.314305A89.976692 89.976692 0 0 0 97.145169 1023.718556h257.990042a98.078859 98.078859 0 0 0 96.799569-96.799569v-257.990041a89.976692 89.976692 0 0 0-96.799569-96.79957zM928.683319 0.286987h-255.857892a88.270973 88.270973 0 0 0-95.09385 95.09385V341.430844a94.66742 94.66742 0 0 0 95.52028 102.769586h255.857892A92.961701 92.961701 0 0 0 1023.777169 349.53301v-255.857892A88.697403 88.697403 0 0 0 928.683319 0.286987zM953.842678 764.875655a179.953384 179.953384 0 0 0-14.925043-36.246534l36.672964-36.672965-64.817332-64.390903-36.672965 36.672965a163.322621 163.322621 0 0 0-35.820105-14.925044V597.288736H746.597786v52.024438a163.322621 163.322621 0 0 0-35.820105 14.925044l-36.672965-36.672965-64.817332 64.390903 36.672964 36.672965a179.953384 179.953384 0 0 0-14.925044 36.246534h-52.024438v91.255982h52.024438a133.046104 133.046104 0 0 0 6.396448 18.336482l6.822877 14.498614-36.672965 36.672965 64.817333 64.390903 36.672965-36.672965a153.088306 153.088306 0 0 0 14.498613 7.249307 92.961701 92.961701 0 0 0 19.189342 6.822877V1023.718556h91.682412v-52.024438a92.961701 92.961701 0 0 0 19.189342-6.822877l14.498614-7.249307 36.672964 36.672965 64.817333-64.390903-31.129377-37.525824 6.822877-14.498614a133.046104 133.046104 0 0 0 6.396447-18.336483h51.598009v-94.66742h-49.46586z m-161.616901 159.484753A113.856762 113.856762 0 1 1 906.082539 810.503646a113.430332 113.430332 0 0 1-113.856762 113.856762z" p-id="7871"></path></svg>