<?xml version="1.0" standalone="no"?><!DOCTYPE svg PUBLIC "-//W3C//DTD SVG 1.1//EN" "http://www.w3.org/Graphics/SVG/1.1/DTD/svg11.dtd"><svg t="1620889708103" class="icon" viewBox="0 0 1024 1024" version="1.1" xmlns="http://www.w3.org/2000/svg" p-id="2072" xmlns:xlink="http://www.w3.org/1999/xlink" width="128" height="128"><defs><style type="text/css"></style></defs><path d="M439.954286 941.129143L267.446857 778.971429a36.571429 36.571429 0 0 1-10.166857-36.571429l130.779429-464.457143h150.052571l131.474286 467.017143a36.571429 36.571429 0 0 1-10.130286 36.571429l-169.362286 159.634285a36.571429 36.571429 0 0 1-50.102857 0zM352.109714 73.142857h225.353143a36.571429 36.571429 0 0 1 29.403429 58.294857L547.84 211.382857v6.290286h-1.828571l-0.402286 1.316571-5.010286-1.316571h-142.811428V215.771429l-12.434286 3.254857-62.939429-87.990857A36.571429 36.571429 0 0 1 352.109714 73.142857z m258.669715 297.069714l163.218285 194.340572a36.571429 36.571429 0 0 1 2.816 43.154286l-63.597714 99.766857-102.4-337.261715z" p-id="2073"></path></svg>