<?xml version="1.0" standalone="no"?><!DOCTYPE svg PUBLIC "-//W3C//DTD SVG 1.1//EN" "http://www.w3.org/Graphics/SVG/1.1/DTD/svg11.dtd"><svg t="1620961038276" class="icon" viewBox="0 0 1024 1024" version="1.1" xmlns="http://www.w3.org/2000/svg" p-id="6146" xmlns:xlink="http://www.w3.org/1999/xlink" width="128" height="128"><defs><style type="text/css"></style></defs><path d="M970.105263 404.210526H53.894737v-323.368421h916.210526v323.368421z m-862.315789-53.894737h808.421052v-215.578947H107.789474v215.578947z" fill="#444A5C" p-id="6147"></path><path d="M970.105263 943.157895H53.894737v-592.842106h916.210526v592.842106z m-862.315789-53.894737h808.421052v-485.052632H107.789474v485.052632zM754.526316 307.2L662.905263 215.578947l37.726316-37.726315 53.894737 53.894736 53.894737-53.894736 37.726315 37.726315z" fill="#444A5C" p-id="6148"></path><path d="M215.578947 565.894737h161.684211v-53.894737H215.578947v53.894737z m215.578948-53.894737v53.894737h377.263158v-53.894737H431.157895z m-215.578948 161.684211h161.684211v-53.894737H215.578947v53.894737z m215.578948 0h377.263158v-53.894737H431.157895v53.894737z m-215.578948 107.789473h161.684211v-53.894737H215.578947v53.894737z m215.578948 0h377.263158v-53.894737H431.157895v53.894737z" fill="#444A5C" p-id="6149"></path></svg>