<?xml version="1.0" standalone="no"?><!DOCTYPE svg PUBLIC "-//W3C//DTD SVG 1.1//EN" "http://www.w3.org/Graphics/SVG/1.1/DTD/svg11.dtd"><svg t="1620891841503" class="icon" viewBox="0 0 1098 1024" version="1.1" xmlns="http://www.w3.org/2000/svg" p-id="5543" xmlns:xlink="http://www.w3.org/1999/xlink" width="137.25" height="128"><defs><style type="text/css"></style></defs><path d="M758.259512 592.321561v425.784195h89.462634v-154.624c143.010341 2.122927 215.514537-4.245854 235.594927-126.276683 6.36878-35.715122-6.36878-75.751024-22.228293-97.729561-47.153951-63.88761-189.04039-48.028098-302.854243-47.153951z m89.462634 198.780878v-124.153756c66.385171-2.122927 136.616585-9.490732 148.230244 44.156878 19.106341 89.737366-73.603122 82.119805-148.230244 79.996878z m-261.819317-196.657951c0.999024 140.862439 0.999024 282.773854 2.122927 423.661268h87.339707V592.321561c-29.446244 1.24878-59.017366 1.24878-89.462634 2.122927zM755.237463 24.650927A215958.602927 215958.602927 0 0 1 340.942049 436.823415V24.650927H7.617561c0.999024 27.323317 0.999024 55.645659 2.122927 83.093853h80.995902V1017.506341C421.912976 686.030049 752.115512 355.827512 1083.317073 24.650927H755.237463z" fill="#333333" p-id="5544"></path></svg>